<?xml version="1.0" encoding="UTF-8"?>
<!DOCTYPE svg PUBLIC "-//W3C//DTD SVG 1.1//EN" "http://www.w3.org/Graphics/SVG/1.1/DTD/svg11.dtd">
<!-- Creator: CorelDRAW X7 -->
<svg xmlns="http://www.w3.org/2000/svg" xml:space="preserve" width="8.8052mm" height="21.3634mm" version="1.1" style="shape-rendering:geometricPrecision; text-rendering:geometricPrecision; image-rendering:optimizeQuality; fill-rule:evenodd; clip-rule:evenodd"
viewBox="0 0 92 224"
 xmlns:xlink="http://www.w3.org/1999/xlink">
 <defs>
  <style type="text/css">
   <![CDATA[
    .str0 {stroke:#BEBEBC;stroke-width:3.54699}
    .str1 {stroke:#F5815C;stroke-width:3.54699}
    .str2 {stroke:#FAB357;stroke-width:3.54699}
    .str5 {stroke:#FEFEFE;stroke-width:2.09509}
    .str3 {stroke:#F5815C;stroke-width:2.09509}
    .str4 {stroke:#FAB357;stroke-width:2.09509}
    .fil3 {fill:none}
    .fil0 {fill:#BEBEBC}
    .fil1 {fill:#F5815C}
    .fil2 {fill:#FAB357}
   ]]>
  </style>
 </defs>
 <g id="Layer_x0020_1">
  <metadata id="CorelCorpID_0Corel-Layer"/>
  <circle class="fil0 str0" cx="46" cy="112" r="44"/>
  <polygon class="fil1 str1" points="46,11 55,61 63,112 46,112 29,112 38,61 "/>
  <polygon class="fil2 str2" points="46,213 38,162 29,112 46,112 63,112 55,162 "/>
  <path class="fil3 str3" d="M63 112c0,-9 -7,-17 -17,-17 -9,0 -17,8 -17,17"/>
  <path class="fil3 str4" d="M63 111c0,10 -8,17 -17,17 -9,0 -17,-7 -17,-17"/>
  <circle class="fil0 str5" cx="46" cy="112" r="15"/>
 </g>
</svg>
